<?xml version="1.0" encoding="UTF-8"?>
<!-- Generator: Adobe Illustrator 23.0.0, SVG Export Plug-In . SVG Version: 6.00 Build 0)  -->
<svg version="1.1" id="Calque_1" xmlns="http://www.w3.org/2000/svg" xmlns:xlink="http://www.w3.org/1999/xlink" x="0px" y="0px" viewBox="0 0 822 211.5" style="enable-background:new 0 0 822 211.5;" xml:space="preserve">
<style type="text/css">
	.st0{fill:#FFFFFF;}
</style>
<g>
	<path class="st0" d="M640,38.6c-5.2-1.2-19.5-1.3-23.5-0.3c-1.4,0.4-3.6,0.9-4.7,1.3c-4.1,1-7.8,2.6-10,4c-5.5,3.6-6.4,4.3-8.3,6.1   c-1.1,1-2.2,1.9-2.4,1.9c-0.3,0-0.5,0.3-0.5,0.6s-0.9,1.6-2.1,2.9c-1.2,1.3-2.1,2.6-2.1,2.9c0,0.3-0.3,0.9-0.7,1.4   c-1.8,2-5.2,9.3-5.4,11.6c-0.7,7.9-0.6,10.9,0.2,15.8c0.9,5.2,2.8,12.3,3.8,14.3c0.3,0.6,1.2,2.3,1.9,3.9c1.9,4.2,6,10.4,9.1,14   c4,4.7,3.6,5.4-1.9,4.2c-1.9-0.4-6.8-1.2-10.8-1.7c-15.2-1.8-24.6-3.7-34.3-6.8c-6.7-2.1-10.2-2.9-14.1-2.9c-3.7,0-6.9,1-6.9,2.1   c0,0.9-3.8,3.9-6.2,4.9c-5.8,2.3-14,2.9-16.9,1.4c-1.9-1-5.4-3.9-8.5-6.9c-2.5-2.5-3.2-3-4.8-3c-1,0-2.5,0.4-3.3,0.8   c-1.6,0.8-1.7,1.3-2.4,7.3c-0.6,5.5-3,9.3-4.8,7.4c-0.7-0.7-0.7-1.2-0.1-3.7c0.6-2.6,0.5-3.1-0.2-3.8c-0.6-0.6-1.2-0.7-3-0.3   c-2.5,0.5-3.8,1.8-4.8,4.6c-0.7,2-2.6,2.9-8.8,4c-4.7,0.9-10.8,0.7-13.1-0.5c-0.8-0.4-2.1-1.3-3-2.1c-1.8-1.5-2.1-3.6-0.9-5.6   c0.4-0.6,0.9-2.1,1.2-3.4c0.3-2,0.2-2.3-0.7-2.6c-0.6-0.1-1.2-0.7-1.3-1.3c-0.2-0.8-0.7-1-2.7-1c-2.1,0-2.7,0.3-4.9,2.2l-2.4,2.2   l0.3,4c0.5,6.3-0.5,7-10.5,8.3c-2.7,0.4-5.8,0.5-7.1,0.3c-3.5-0.6-8.2-3.2-8.2-4.7c0-0.3,1.4-2.2,3.1-4.2c2.9-3.3,3.1-3.9,3.1-6.1   c0-2.2-0.2-2.6-1.6-3.3c-2-1-4.4-0.7-8.3,1.2c-4,2-4.9,3.5-5.1,8.5c-0.2,2.4-0.5,4.4-0.8,4.7c-1.1,0.9-6.7,2.1-9.7,2.1   c-4.4,0-9.3-2.2-10.5-4.7c-0.4-0.7-0.7-3.5-0.9-6c-0.3-6.1-0.8-7-3.8-6.1c-3.2,0.9-4.5,3.1-4.9,8.1c-0.2,2.2-0.6,4.7-1,5.5   c-0.9,1.8-4.3,4.5-8.4,6.6c-9.4,4.9-25.6,2.9-32.8-4c-2.6-2.4-2.7-4.2-0.3-5.6c3.3-2.1,7.6-7,8.5-9.9c1.3-3.7,0.4-7.4-1.6-7.4   c-0.4,0-1.6-0.6-2.6-1.3c-1-0.7-2.4-1.3-2.8-1.3c-0.5,0-1.2-0.4-1.6-0.8c-0.8-1-3.3-0.6-6.7,1.1c-2.7,1.3-3.5,2.1-5.3,5.2   c-1.1,1.8-1.3,2.7-1.2,6.7c0.1,3,0.4,5,0.8,5.8c0.7,1,1.1,3.1,0.9,4.9c-0.1,0.3-1.6,1.4-3.6,2.2c-2,0.9-4.5,2.1-5.6,2.7   c-1.2,0.5-4,1.8-6.3,2.7c-5.9,2.5-8.9,3.8-16.7,7.7c-3.8,1.9-7.5,3.6-8.3,3.8c-0.8,0.2-4.2,2.2-7.6,4.5c-3.5,2.3-6.5,4.2-6.8,4.2   c-0.7,0-0.8-0.8-0.2-1.3c0.3-0.2,0.9-2.6,1.4-5.4c0.5-2.8,1.1-5.6,1.4-6.2c0.6-1.7,2.6-9,2.6-9.8c0-0.4,0.5-1.2,1-1.7   c0.6-0.5,1-1.3,1-1.6c0-1.1,1.5-2.2,3.6-2.8c3.2-0.8,8.3-4.2,11.1-7.5c2.4-2.7,2.6-3.3,2.6-5.5c0-2.9-0.8-5.8-2-6.7   c-1.3-1-4.7-0.8-6.5,0.5c-2.3,1.6-6.6,5.8-6.6,6.4c0,0.5-1.6,3-5.2,7.8c-0.8,1.2-1.5,2.5-1.6,3c0,1.3-2.1,2-7.4,2.3   c-5.6,0.4-8.5-0.7-10.9-4.1c-0.9-1.2-2.1-2.4-2.6-2.6c-1-0.4-4.5,0.4-5,1.2c-0.4,0.7-9.3,3.5-16,5c-7.5,1.7-15.9,1.9-20.6,0.6   c-3.2-1-3.3-1.2-7.3-7.4c-3.3-5.1-6.6-4.3-12.4,3c-3.4,4.2-5.7,6.7-6.3,6.7c-0.2,0-1.3-2.2-2.6-5c-1.3-2.7-2.6-5.2-2.9-5.5   c-0.4-0.3-0.8-1.3-1-2.1c-0.2-0.8-1.2-2.6-2.1-3.9c-1-1.3-1.8-2.5-1.8-2.7c0-0.6-3.7-3.8-5.5-4.8c-2.1-1.1-5.6-0.9-9.2,0.4   c-4.7,1.8-5.5,2.8-5.9,7.7c-0.5,5.4-2.2,14-3.5,16.8c-0.5,1.2-1,2.6-1,3c0,0.5-0.3,0.8-0.6,0.8c-0.3,0-1.2,0.5-1.8,1.1   c-0.6,0.6-2.7,1.7-4.6,2.4l-3.4,1.2l-0.8-1.2c-0.4-0.6-0.8-0.8-0.8-0.5c0,1.2-0.9,0.6-2-1.1c-0.9-1.5-1-2.1-0.6-4.8   c0.3-2.3,0.7-3.3,1.6-3.9c4.1-2.8,8.2-8.9,8.8-12.9c0.4-2.9-0.5-3.2-3.8-1.5c-5.1,2.6-7.9,5.4-10.1,10c-0.6,1.2-1.3,2.4-1.6,2.6   c-0.3,0.2-0.9,1.2-1.4,2.2c-0.6,1.5-1.6,2.5-4.4,4.2c-2,1.3-4.5,2.4-5.6,2.6c-1.1,0.2-2.7,0.6-3.6,0.9c-0.8,0.4-3.6,1.1-6,1.6   c-9.8,2-21.2-0.7-23.6-5.5c-0.4-0.7-1.2-2-1.8-2.9c-2.1-3.1-2.8-5.8-2.8-11.5c0-5.5,1.1-11.3,3-16.2c0.5-1.2,1-2.9,1.2-3.9   c0.7-3,3.3-9.5,7.1-17c1-2,2-4.4,2.4-5.4c0.3-0.9,0.8-1.7,1-1.7c0.3,0,0.5-0.3,0.5-0.7c0-0.4,0.6-1.5,1.3-2.6   c0.7-1,1.3-2.2,1.3-2.6c0-0.6,1.9-5.4,3.7-9.1c3.7-7.7,5.3-14.3,6.1-23.4c0.7-8.8-1.5-15-6.2-17.4c-2.4-1.3-8.4-0.3-13.3,2.1   c-2,1-4,1.9-4.4,1.9c-0.4,0-1.3,0.5-2,1.2c-0.8,0.7-2.4,1.9-3.5,2.8c-1.1,0.9-3.3,2.8-4.9,4.3c-1.6,1.5-3.1,2.8-3.3,2.8   c-0.3,0-0.8,0.8-1.3,1.8c-0.5,1-1.1,1.8-1.3,1.8c-0.7,0-2.7,2-4.1,4.2c-0.7,1-2.2,3.1-3.5,4.6c-1.3,1.5-2.2,3-2.2,3.3   c0,0.3-0.9,1.6-2,2.8s-2.5,3.1-3,4.3c-0.6,1.1-1.3,2.4-1.7,2.8c-0.9,1.2-3.7,6.1-5.2,9.4c-0.7,1.6-2.3,4.4-3.5,6.4s-2.4,4.6-2.8,6   c-0.4,1.4-1.4,3.4-2,4.4c-0.7,1.1-1.3,2.4-1.3,2.8c0,0.5-0.7,1.7-1.6,2.7c-0.9,0.9-1.6,2.2-1.6,2.8s-0.5,1.9-1,3.1   c-0.6,1.2-1,2.5-1,2.9c0,0.5-0.7,2-1.5,3.3c-1.8,2.8-2.8,5.4-3.8,9.7c-0.4,1.7-1.4,4.8-2.1,6.8c-0.8,2-1.6,4.7-1.7,6   c-0.4,4.4-1.1,8.3-1.7,9c-1,1.4-2.2,7.6-1.7,9c0.5,1.4,2,2.4,3.3,2.4c1.8,0,7.4-7.6,9.3-12.6c0.6-1.7,1.4-3.2,1.8-3.3   c0.4-0.2,1-1,1.5-2c1-2.1,2.9-5.5,4.1-7.2c0.5-0.7,0.9-1.7,0.9-2.2c0-0.5,1.2-3.3,2.6-6.3c2.9-6,3.4-7.8,2.9-10.6   c-0.4-2.2-2-3.1-4.1-2.4c-1.7,0.6-2.7,2.7-3,6.4c-0.2,1.8-1,4.5-1.9,6.5c-0.9,1.9-1.6,3.9-1.6,4.4c0,0.5-0.4,1.8-1,2.9   c-0.5,1-1.3,2.9-1.6,4s-1.4,3.1-2.1,4.3c-0.8,1.3-1.5,2.8-1.5,3.3c0,0.6-0.6,2.1-1.5,3.2l-1.4,2.1l-0.2-2.5   c-0.1-1.3,0.2-3.5,0.6-4.8c0.5-1.3,0.8-3,0.8-3.8c0-2,5.5-18.4,6.8-20.1c0.6-0.8,1-1.8,1-2.4c0-1,3.5-9.8,5.5-13.9   c0.7-1.5,1.3-3,1.3-3.5c0-0.4,0.4-1.3,0.8-1.9c0.4-0.6,1.6-3.1,2.5-5.5c0.9-2.4,2.1-4.9,2.6-5.6c2.1-3,5.1-8.4,4.8-8.9   c-0.2-0.3,0.2-0.7,0.8-1c0.6-0.3,1-0.9,1-1.3s1-2.3,2.4-4.3c1.3-1.9,2.4-3.7,2.4-3.9s0.5-0.3,1-0.1c0.8,0.2,1-0.1,1.3-1.3   c0.2-0.8,1.3-2.7,2.4-4.1c1.2-1.5,2.4-3.2,2.9-4c0.9-1.6,4.9-6.1,7.5-8.5c1-0.9,2.7-2.5,3.8-3.6c1.1-1,3.2-2.7,4.8-3.6   c1.5-1,3-2,3.2-2.4c0.9-1.1,6.4-3.9,7.5-3.9c0.6,0,2,0.5,3.1,1c1.6,0.8,2.2,1.6,2.9,3.5c1.2,3.3,1.5,12,0.5,16.4   c-0.4,1.7-0.8,4.3-0.9,5.6c-0.3,3.5-1.2,6.5-3.3,11.5c-1.4,3.3-1.8,4.8-1.6,6.2c0.2,1.3,0.1,1.9-0.4,2.1c-1.2,0.4-2.7,3.2-3.5,6.2   c-0.3,1.5-1,3-1.6,3.6c-0.6,0.6-1,1.7-1,2.9c0,1.6-0.3,2.2-1.4,2.9c-1.1,0.7-1.3,1.2-1.2,2.8c0.2,2.8-0.4,4.3-1.8,4.3   c-1.9,0-2.5,0.7-2.9,3.5c-0.5,3.1-1.4,5.4-2,5.4c-0.3,0-0.4,0.6-0.2,1.4c0.1,0.7,0,1.8-0.3,2.5c-3.7,7.6-4.4,12.6-3.2,22.1   c0.8,6.6,4.1,11.1,11,15.1l2.9,1.6h8.4c7.7,0,8.9-0.2,14.6-1.7c7.3-1.9,13.7-4,14.7-4.9c0.6-0.5,0.9-0.1,1.7,1.7   c1.2,2.7,2.8,4.2,6.1,5.4c2.2,0.8,2.5,0.8,6.6-0.3c4.3-1.2,5-1.4,8.4-3.6c1.8-1.2,6.9-7.1,7-8.2c0.1-0.3,0.6-1.6,1.2-2.9   c0.6-1.3,1.4-4.1,1.7-6.3c1-7,1.7-9.8,2.6-11l0.9-1.2l2.1,1.5c1.2,0.8,2.1,1.7,2.1,1.9c0,0.2,0.9,1.4,2,2.7   c1.1,1.3,3.8,5.6,6.1,9.6c2.2,4,4.2,7.7,4.4,8.1c0.3,0.6,1.3,0.8,3.5,0.7c4.3-0.1,7.4-1,7.8-2.4c0.3-1,5-6.2,5.6-6.2   c0.2,0,1.4,1.2,2.8,2.5c3.3,3.3,6.5,4.2,15.1,4.3c6.2,0.1,12.6-0.8,18.4-2.4c1.5-0.4,3.3-0.8,4.2-0.8c0.8,0,3.7-0.7,6.2-1.5   l4.7-1.5l1.8,1.9c2.6,2.8,5.1,3.3,13.8,3.1l7.3-0.2l-0.2,1.8c-0.1,1-0.7,2.8-1.3,3.9s-1.3,3.3-1.5,4.7c-1,6-1.7,8.6-2.1,8.6   c-0.4,0-0.5,1-0.3,2.8c0.2,1.7,0.1,3-0.3,3.4c-0.8,0.8-1.9,4.2-1.9,6c0,1.5-4.1,7.1-8.1,10.8c-1.9,1.9-5.1,6.6-5.8,8.8   c-0.2,0.6-0.9,1.8-1.5,2.5c-1.4,1.5-2.9,5.6-4.2,11.3c-1.3,5.9-0.6,8.8,2.7,10.9c1.7,1.2,2.2,1.2,4.1,0.4c1.4-0.6,4.4-5.5,5.5-9   c0.4-1.2,1.5-3.7,2.4-5.7c1-2,1.8-4,1.8-4.4c0-0.4,0.3-1.4,0.7-2.1c2.9-5.4,4.9-10.6,5.4-13.7c0.2-1,0.6-2.3,0.9-2.9   c0.4-0.6,0.8-1.9,1-2.9c0.4-2,0.6-2.2,5.8-6.3c2-1.6,4-3.3,4.4-3.8c0.4-0.5,0.9-0.9,1.2-0.9c0.7,0,6.5-3.5,8.4-5.1   c0.8-0.7,1.8-1.2,2.1-1.2c0.6,0,8.4-3.8,11.6-5.6c0.6-0.3,4-1.8,7.6-3.3c3.6-1.5,9-3.9,12-5.3c3-1.4,6.1-2.6,6.7-2.6   c0.7,0,2.1,0.7,3.2,1.6c1.1,0.9,2.4,1.6,2.8,1.6c0.5,0,1,0.2,1.2,0.5c0.2,0.3,0.6,0.5,1,0.5c0.4,0,1.9,0.7,3.4,1.7   c2.5,1.6,3.1,1.7,10.9,2.3c7.7,0.6,8.5,0.6,13.3-0.4c2.8-0.5,5.9-1.4,6.8-1.7c0.9-0.4,3.2-1.3,5-2c2.2-0.8,3.9-1.9,5.1-3.1   c1.9-2.1,3-2.5,3.7-1.3c0.2,0.4,1.5,1.3,2.8,1.9c2.1,1.2,3,1.3,9.4,1.3c5.5-0.1,8.1-0.3,11.7-1.2l4.6-1.2l3.2,1.6   c3.8,1.9,10.4,2.9,15.5,2.4c5.3-0.6,13.6-2.1,15.8-3c1.8-0.7,2-0.7,4.3,0.4c4.7,2.4,12.4,2.8,27.4,1.5c3-0.3,4.1-0.2,5.8,0.6   c2.9,1.4,7.8,1.6,9.8,0.3c2.2-1.4,3.9-5,3.9-8.5c0.1-1.7,0.4-3.2,0.8-3.9c0.8-0.9,0.9-0.9,3.3,1.4c4.1,4.1,6.5,4.9,14.5,4.9   c5.7-0.1,7.6-0.3,11.8-1.4c6.4-1.8,10.3-3.5,12.4-5.6c0.9-0.9,2-1.6,2.5-1.6c1.3,0,7.8,1.5,9.5,2.1c3.9,1.5,24.6,5.7,29.8,6   c6.7,0.4,10.7,0.8,13.1,1.3c1.5,0.3,5.1,0.8,8.1,1.3c7.6,1.1,9,1.6,12,4.1c1.4,1.3,4.2,3.1,6.2,4.1c3,1.6,4.2,1.9,7.5,2   c3.7,0.2,3.9,0.2,4.1-0.9c0.2-1.5-4.5-6.6-7.4-8c-1.2-0.6-3.7-1.3-5.6-1.7c-2.2-0.5-4-1.2-5.1-2.1c-0.9-0.8-2.2-1.6-2.9-1.8   c-2-0.6-4.1-2.4-4.1-3.4c0-0.6-0.9-1.9-2-3c-1.2-1.1-2.4-2.9-2.8-3.9c-0.5-1-1.3-2.1-1.8-2.4c-0.6-0.3-1.9-2.4-3-4.5   c-1.1-2.2-2.4-4.1-2.8-4.2c-0.8-0.2-0.9-0.7-0.7-2.8c0.2-2.1,0-3-1.2-5c-1.5-2.5-1.5-2.6-1.5-11.7c-0.1-8.7,0-9.3,1.1-10.8   c0.6-0.8,1.4-2.6,1.7-3.7c0.3-1.2,0.9-2.4,1.4-2.5c0.4-0.2,0.8-0.6,0.8-0.9c0-1,9.4-10.7,11.4-11.6c0.9-0.5,1.7-1.1,1.7-1.4   c0-0.3,0.5-0.6,1.2-0.8c0.6-0.2,2-1,3-1.8c2.4-1.9,4.5-3,6.8-3.5c1-0.2,3.6-0.9,5.8-1.7c3.3-1.2,5-1.4,10.7-1.5   c5.6-0.1,7.2,0.1,9.3,0.9c1.4,0.5,3,1,3.5,1c0.5,0,1.9,0.8,3,1.9c1.1,1,2.9,2.5,4,3.2c1.1,0.7,2.6,2.2,3.4,3.3   c0.8,1.2,2,2.9,2.8,3.8c0.7,0.9,1.5,2.6,1.7,3.8c0.2,1.2,0.6,2.4,0.9,2.7c0.3,0.4,0.4,0.9,0.2,1.2c-0.2,0.3-0.2,0.8,0.1,1.1   c0.2,0.3,0.4,2.2,0.5,4.3c0.1,2,0.4,3.9,0.7,4.2c1,1,1.6-0.3,1.6-3.3c0-1.7,0.3-3.6,0.6-4.1c1-1.6-0.2-6.2-3-11.9   C653.9,44.4,648.9,40.6,640,38.6z M272.1,115.7c0.8-1.5,2-3.8,2.7-5c0.6-1.3,1.4-2.2,1.7-2.2c0.3,0,1-0.6,1.7-1.4   c1-1.3,1.3-1.4,2-0.7c2.2,1.8-0.6,7.3-5.3,10.3c-1.6,1-3.2,1.8-3.6,1.8C270.8,118.4,271.2,117.3,272.1,115.7z M170.6,120.5   c-0.3,0-0.5-0.5-0.5-1.2c0-1,0.1-1,0.5-0.4C171.3,119.9,171.3,120.5,170.6,120.5z M250.9,166.4c-1,2.5-2.4,7.5-2.7,9.9   c-0.2,1.6-0.6,2.8-1,3c-1,0.4-0.9,2.1,0.1,3c0.7,0.6,0.7,0.7-0.3,1.1c-0.6,0.2-1.1,0.8-1.1,1.4c0,0.6-0.4,1.4-0.9,1.7   c-1.2,1-2.4,4-2,5.1c0.3,0.9-3,5.8-3.9,5.8c-0.3,0-0.9-0.6-1.4-1.4c-0.5-0.8-0.8-1.8-0.8-2.2c0.1-0.4,0.1-2,0.1-3.6   c-0.1-2.2,0.2-3,1.3-4.3c0.7-0.9,1.4-2.1,1.4-2.9c0-2.2,2.9-7.7,6.8-12.6C249.9,165.8,251.8,164.2,250.9,166.4z M318.4,110.6   c-0.5,0.7-0.8,0.6-0.8-0.4c0-0.4,0.3-0.6,0.5-0.5C318.4,110,318.5,110.4,318.4,110.6z M324.1,117.4c-0.4,0-1-0.9-1.5-2   c-0.8-2-0.7-8.2,0.2-10.3c0.2-0.6,0.6-1.5,0.7-1.9c0.4-1.2,4.1-1.3,5-0.2c0.4,0.4,1.2,0.9,1.9,1c1.1,0.3,1.3,0.7,1.3,2.2   c0,1-0.4,2.6-0.8,3.6C330.1,111.9,325.1,117.4,324.1,117.4z"/>
	<g>
		<path class="st0" d="M750.6,116.3l-2.1-2l-3.8,3.7l-3.9,3.7l2.4,2.6c1.4,1.4,2.7,3.1,3,3.8c0.6,1.2,0.7,1.2,3.9-1.8    c1.8-1.7,3.6-3.3,4-3.7c0.6-0.5,0.5-0.9-0.4-2.4C753.2,119.1,751.7,117.5,750.6,116.3z"/>
		<path class="st0" d="M709.7,121.5l-12.3-0.6l2.6-1.6c11.6-7.1,21.9-17.4,26-26.1c3.2-7,2-13-3.6-17.2c-5.3-4-12.3-4.8-20.6-2.1    c-8.3,2.7-13.6,6-13.6,8.5c0,0.7,0.1,1.2,0.2,1.2c0.2,0,1.4-0.7,2.7-1.6c6.7-4.5,15.4-5.2,21.2-1.6c2.9,1.8,5.6,5.6,6.1,8.8    c0.8,5.5-1.9,12.6-6.9,17.9c-5.4,5.9-13.7,10.8-21.8,13c-2.8,0.8-4,1.5-6.7,4c-1.8,1.6-3.2,3-3.1,3c0.4,0.2,32.2,1.4,37.1,1.4    l5,0.1l3.1-3.1l3.1-3.1l-3.1-0.1C723.4,122.2,716.5,121.9,709.7,121.5z"/>
		<path class="st0" d="M800.4,72.4c-5.5-0.8-13.8,2.1-19.1,6.8c-9.8,8.6-15.1,19.6-15.1,31.3c0,8.1,2.9,13.8,8.3,16.6    c3.3,1.7,7.6,1.9,12.1,0.6c4.7-1.4,8.8-3.9,13.1-8.1c6.3-6.2,10.5-13.3,12.2-20.6c1-4.2,1-12.5,0-15.8    C810.2,77.5,805.7,73.2,800.4,72.4z M793.2,121.5c-3.2,1.5-7.1,1.6-10,0.3c-4.7-2.1-7.7-7-8.7-14c-1.6-11.7,3.5-24.4,11.3-28.6    c2.9-1.5,7.6-1.5,10.5,0c4.1,2.1,6.6,5.9,7.8,11.6C806.7,102.9,801.4,117.7,793.2,121.5z"/>
	</g>
</g>
</svg>